<svg width="1170" height="550" viewBox="0 0 1170 550" fill="none" xmlns="http://www.w3.org/2000/svg">
<rect width="1170" height="550" fill="#12132D"/>
<path d="M1170 177V550H0V322.137C13.1293 333.136 27.7692 342.923 43.6437 351.315C96.7381 379.3 162.964 390.52 225.476 382.101C290.986 373.293 349.22 344.504 408.168 319.771C467.115 295.038 532.308 273.409 598.096 280.705C650.807 286.553 697.54 310.299 747.804 324.413C831.494 347.909 926.56 343.58 1006.46 312.634C1078.35 284.792 1137.18 235.692 1170 177Z" fill="#9DCFEA" fill-opacity="0.07"/>
<path d="M1170 294.253V548.918H0V358.558C19.2623 361.804 39.2673 362.244 58.7808 359.849C111.633 353.213 157.307 330.653 203.465 311.135C249.622 291.617 301.758 274.17 354.915 279.424C444.012 288.226 510.884 358.113 600.36 351.565C662.138 347.037 705.886 307.422 761.411 287.591C825.282 264.773 901.234 269.408 971.521 278.513C1037.26 287.023 1103.88 299.012 1170 294.253Z" fill="white" fill-opacity="0.05"/>
<path d="M1170 370.649V548.595H0V359.839C21.4487 335.127 50.8975 315.291 84.5984 303.656C136.88 285.634 198.458 287.756 248.805 309.311C299.348 330.952 336.497 369.787 384.747 394.851C453.237 430.428 543.243 434.789 616.148 406.061C656.79 390.048 692.967 364.366 737.111 357.503C805.943 346.807 870.76 384.13 938.024 400.409C1015.69 419.207 1101.48 406.268 1170 370.649Z" fill="white" fill-opacity="0.03"/>
<path d="M1170 442.065V550H0V437.329C39.1121 423.347 93.057 420.851 140.907 424.849C203.023 430.041 262.479 443.651 325.204 445.684C470.242 450.388 600.965 393.241 746.186 390.638C814.972 389.405 882.291 400.562 947.392 412.667C1012.49 424.773 1077.82 438.073 1146.37 441.376C1154.19 441.755 1162.07 441.984 1170 442.065Z" fill="white" fill-opacity="0.01"/>
</svg>
