<svg width="177" height="47" viewBox="0 0 177 47" fill="none" xmlns="http://www.w3.org/2000/svg">
<path d="M0.66 46V0.879997H21.972C27.1773 0.879997 31.188 2.11733 34.004 4.592C36.8627 7.06666 38.292 10.5013 38.292 14.896C38.292 17.84 37.652 20.3573 36.372 22.448C35.092 24.496 33.236 26.096 30.804 27.248C28.372 28.3573 25.4707 28.912 22.1 28.912L22.676 27.312H25.876C27.7533 27.312 29.4173 27.824 30.868 28.848C32.3187 29.872 33.5133 31.3013 34.452 33.136L41.3 46H28.372L21.012 31.6C20.5427 30.6613 19.8387 30.0213 18.9 29.68C18.004 29.3387 16.98 29.168 15.828 29.168H12.5V46H0.66ZM12.5 20.784H19.924C22.228 20.784 23.9773 20.336 25.172 19.44C26.3667 18.5013 26.964 17.1147 26.964 15.28C26.964 13.488 26.3667 12.144 25.172 11.248C23.9773 10.352 22.228 9.904 19.924 9.904H12.5V20.784ZM61.922 46.704C56.034 46.704 51.4473 45.1893 48.162 42.16C44.9193 39.1307 43.298 34.9707 43.298 29.68C43.298 26.3947 43.9807 23.472 45.346 20.912C46.7113 18.352 48.6313 16.368 51.106 14.96C53.5807 13.5093 56.482 12.784 59.81 12.784C63.0953 12.784 65.826 13.5093 68.002 14.96C70.2207 16.368 71.8847 18.3307 72.994 20.848C74.1033 23.3227 74.658 26.2027 74.658 29.488V31.92H52.834V26.544H66.274L65.186 27.44C65.186 25.008 64.7167 23.216 63.778 22.064C62.882 20.8693 61.602 20.272 59.938 20.272C58.018 20.272 56.546 20.9973 55.522 22.448C54.5407 23.856 54.05 25.9893 54.05 28.848V30C54.05 32.8587 54.754 34.9493 56.162 36.272C57.57 37.5947 59.5967 38.256 62.242 38.256C63.9487 38.256 65.5487 38.064 67.042 37.68C68.578 37.296 70.0287 36.6773 71.394 35.824L74.338 43.248C72.7167 44.3573 70.8393 45.2107 68.706 45.808C66.5727 46.4053 64.3113 46.704 61.922 46.704ZM91.0265 46V10.416H77.3305V0.879997H116.562V10.416H102.867V46H91.0265ZM115.833 46V22.384C115.833 20.8907 115.79 19.3973 115.705 17.904C115.619 16.4107 115.491 14.9387 115.321 13.488H126.329L127.545 23.472H125.817C126.243 21.04 126.926 19.0347 127.865 17.456C128.803 15.8773 129.977 14.704 131.385 13.936C132.793 13.168 134.457 12.784 136.377 12.784C137.273 12.784 137.934 12.8267 138.361 12.912C138.83 12.9547 139.321 13.0827 139.833 13.296V23.28C138.766 22.8107 137.913 22.512 137.273 22.384C136.633 22.256 135.801 22.192 134.777 22.192C133.027 22.192 131.598 22.512 130.489 23.152C129.379 23.7493 128.569 24.688 128.057 25.968C127.587 27.248 127.353 28.8907 127.353 30.896V46H115.833ZM158.964 46.704C155.337 46.704 152.201 46.0213 149.556 44.656C146.91 43.2907 144.862 41.3493 143.411 38.832C141.961 36.272 141.236 33.2427 141.236 29.744C141.236 26.2027 141.961 23.1733 143.411 20.656C144.862 18.1387 146.91 16.1973 149.556 14.832C152.201 13.4667 155.337 12.784 158.964 12.784C162.548 12.784 165.662 13.4667 168.308 14.832C170.953 16.1973 173.001 18.16 174.451 20.72C175.902 23.2373 176.628 26.2453 176.628 29.744C176.628 33.2 175.902 36.208 174.451 38.768C173.001 41.328 170.953 43.2907 168.308 44.656C165.662 46.0213 162.548 46.704 158.964 46.704ZM158.964 38.256C160.841 38.256 162.334 37.5947 163.444 36.272C164.553 34.9067 165.108 32.7307 165.108 29.744C165.108 26.7573 164.553 24.6027 163.444 23.28C162.334 21.9147 160.841 21.232 158.964 21.232C157.044 21.232 155.529 21.9147 154.42 23.28C153.31 24.6027 152.756 26.7573 152.756 29.744C152.756 32.7307 153.31 34.9067 154.42 36.272C155.529 37.5947 157.044 38.256 158.964 38.256Z" fill="url(#paint0_linear_5_564)"/>
<defs>
<linearGradient id="paint0_linear_5_564" x1="-18.3033" y1="44.5" x2="217.822" y2="44.5" gradientUnits="userSpaceOnUse">
<stop stop-color="#797DFC"/>
<stop offset="1" stop-color="#797DFC" stop-opacity="0"/>
</linearGradient>
</defs>
</svg>
